<mxfile host="app.diagrams.net" agent="Mozilla/5.0 (Windows NT 10.0; Win64; x64; rv:137.0) Gecko/20100101 Firefox/137.0" version="26.2.12">
  <diagram id="C5RBs43oDa-KdzZeNtuy" name="Page-1">
    <mxGraphModel dx="874" dy="475" grid="1" gridSize="10" guides="1" tooltips="1" connect="1" arrows="1" fold="1" page="1" pageScale="1" pageWidth="827" pageHeight="1169" math="0" shadow="0">
      <root>
        <mxCell id="WIyWlLk6GJQsqaUBKTNV-0" />
        <mxCell id="WIyWlLk6GJQsqaUBKTNV-1" parent="WIyWlLk6GJQsqaUBKTNV-0" />
        <mxCell id="0nSK4UFLt7cWW-W3PClM-39" value="" style="rounded=0;whiteSpace=wrap;html=1;fillColor=none;movable=0;resizable=0;rotatable=0;deletable=0;editable=0;locked=1;connectable=0;" vertex="1" parent="WIyWlLk6GJQsqaUBKTNV-1">
          <mxGeometry x="20" y="600" width="730" height="280" as="geometry" />
        </mxCell>
        <mxCell id="0nSK4UFLt7cWW-W3PClM-12" value="" style="rounded=0;whiteSpace=wrap;html=1;fillColor=none;movable=0;resizable=0;rotatable=0;deletable=0;editable=0;locked=1;connectable=0;" vertex="1" parent="WIyWlLk6GJQsqaUBKTNV-1">
          <mxGeometry x="20" y="180" width="720" height="350" as="geometry" />
        </mxCell>
        <mxCell id="0nSK4UFLt7cWW-W3PClM-42" value="" style="edgeStyle=orthogonalEdgeStyle;rounded=0;orthogonalLoop=1;jettySize=auto;html=1;" edge="1" parent="WIyWlLk6GJQsqaUBKTNV-1" source="WIyWlLk6GJQsqaUBKTNV-3" target="0nSK4UFLt7cWW-W3PClM-3">
          <mxGeometry relative="1" as="geometry" />
        </mxCell>
        <mxCell id="WIyWlLk6GJQsqaUBKTNV-3" value="Cena inicial&lt;br&gt;(Entrando na dungeon)" style="rounded=1;whiteSpace=wrap;html=1;fontSize=12;glass=0;strokeWidth=1;shadow=0;" parent="WIyWlLk6GJQsqaUBKTNV-1" vertex="1">
          <mxGeometry x="161" y="60" width="120" height="60" as="geometry" />
        </mxCell>
        <mxCell id="0nSK4UFLt7cWW-W3PClM-26" style="edgeStyle=orthogonalEdgeStyle;rounded=0;orthogonalLoop=1;jettySize=auto;html=1;exitX=0.5;exitY=1;exitDx=0;exitDy=0;entryX=1;entryY=0.5;entryDx=0;entryDy=0;" edge="1" parent="WIyWlLk6GJQsqaUBKTNV-1" source="0nSK4UFLt7cWW-W3PClM-2" target="0nSK4UFLt7cWW-W3PClM-7">
          <mxGeometry relative="1" as="geometry" />
        </mxCell>
        <mxCell id="0nSK4UFLt7cWW-W3PClM-28" style="edgeStyle=orthogonalEdgeStyle;rounded=0;orthogonalLoop=1;jettySize=auto;html=1;exitX=1;exitY=0.5;exitDx=0;exitDy=0;" edge="1" parent="WIyWlLk6GJQsqaUBKTNV-1" source="0nSK4UFLt7cWW-W3PClM-2">
          <mxGeometry relative="1" as="geometry">
            <mxPoint x="450" y="230" as="targetPoint" />
          </mxGeometry>
        </mxCell>
        <mxCell id="0nSK4UFLt7cWW-W3PClM-2" value="MOB" style="rhombus;whiteSpace=wrap;html=1;shadow=0;fontFamily=Helvetica;fontSize=12;align=center;strokeWidth=1;spacing=6;spacingTop=-4;" vertex="1" parent="WIyWlLk6GJQsqaUBKTNV-1">
          <mxGeometry x="305" y="190" width="100" height="80" as="geometry" />
        </mxCell>
        <mxCell id="0nSK4UFLt7cWW-W3PClM-20" style="edgeStyle=orthogonalEdgeStyle;rounded=0;orthogonalLoop=1;jettySize=auto;html=1;exitX=0.5;exitY=1;exitDx=0;exitDy=0;" edge="1" parent="WIyWlLk6GJQsqaUBKTNV-1" source="0nSK4UFLt7cWW-W3PClM-3">
          <mxGeometry relative="1" as="geometry">
            <mxPoint x="221" y="310" as="targetPoint" />
          </mxGeometry>
        </mxCell>
        <mxCell id="0nSK4UFLt7cWW-W3PClM-27" style="edgeStyle=orthogonalEdgeStyle;rounded=0;orthogonalLoop=1;jettySize=auto;html=1;exitX=1;exitY=0.5;exitDx=0;exitDy=0;" edge="1" parent="WIyWlLk6GJQsqaUBKTNV-1" source="0nSK4UFLt7cWW-W3PClM-3">
          <mxGeometry relative="1" as="geometry">
            <mxPoint x="310" y="230" as="targetPoint" />
          </mxGeometry>
        </mxCell>
        <mxCell id="0nSK4UFLt7cWW-W3PClM-3" value="Salão de entrada" style="rhombus;whiteSpace=wrap;html=1;shadow=0;fontFamily=Helvetica;fontSize=12;align=center;strokeWidth=1;spacing=6;spacingTop=-4;" vertex="1" parent="WIyWlLk6GJQsqaUBKTNV-1">
          <mxGeometry x="171" y="190" width="100" height="80" as="geometry" />
        </mxCell>
        <mxCell id="0nSK4UFLt7cWW-W3PClM-23" style="edgeStyle=orthogonalEdgeStyle;rounded=0;orthogonalLoop=1;jettySize=auto;html=1;exitX=1;exitY=0.5;exitDx=0;exitDy=0;" edge="1" parent="WIyWlLk6GJQsqaUBKTNV-1" source="0nSK4UFLt7cWW-W3PClM-4">
          <mxGeometry relative="1" as="geometry">
            <mxPoint x="180" y="350" as="targetPoint" />
          </mxGeometry>
        </mxCell>
        <mxCell id="0nSK4UFLt7cWW-W3PClM-4" value="&lt;div&gt;Mini BOSS 1&lt;/div&gt;(Chave)" style="rhombus;whiteSpace=wrap;html=1;shadow=0;fontFamily=Helvetica;fontSize=12;align=center;strokeWidth=1;spacing=6;spacingTop=-4;" vertex="1" parent="WIyWlLk6GJQsqaUBKTNV-1">
          <mxGeometry x="31" y="310" width="100" height="80" as="geometry" />
        </mxCell>
        <mxCell id="0nSK4UFLt7cWW-W3PClM-21" style="edgeStyle=orthogonalEdgeStyle;rounded=0;orthogonalLoop=1;jettySize=auto;html=1;exitX=0.5;exitY=1;exitDx=0;exitDy=0;" edge="1" parent="WIyWlLk6GJQsqaUBKTNV-1" source="0nSK4UFLt7cWW-W3PClM-5">
          <mxGeometry relative="1" as="geometry">
            <mxPoint x="81" y="310" as="targetPoint" />
          </mxGeometry>
        </mxCell>
        <mxCell id="0nSK4UFLt7cWW-W3PClM-22" style="edgeStyle=orthogonalEdgeStyle;rounded=0;orthogonalLoop=1;jettySize=auto;html=1;exitX=1;exitY=0.5;exitDx=0;exitDy=0;entryX=0;entryY=0.5;entryDx=0;entryDy=0;" edge="1" parent="WIyWlLk6GJQsqaUBKTNV-1" source="0nSK4UFLt7cWW-W3PClM-5" target="0nSK4UFLt7cWW-W3PClM-3">
          <mxGeometry relative="1" as="geometry" />
        </mxCell>
        <mxCell id="0nSK4UFLt7cWW-W3PClM-5" value="&lt;div&gt;Equipamentos&lt;/div&gt;&lt;div&gt;1&lt;/div&gt;" style="rhombus;whiteSpace=wrap;html=1;shadow=0;fontFamily=Helvetica;fontSize=12;align=center;strokeWidth=1;spacing=6;spacingTop=-4;" vertex="1" parent="WIyWlLk6GJQsqaUBKTNV-1">
          <mxGeometry x="31" y="190" width="100" height="80" as="geometry" />
        </mxCell>
        <mxCell id="0nSK4UFLt7cWW-W3PClM-29" style="edgeStyle=orthogonalEdgeStyle;rounded=0;orthogonalLoop=1;jettySize=auto;html=1;exitX=1;exitY=0.5;exitDx=0;exitDy=0;entryX=0;entryY=0.5;entryDx=0;entryDy=0;" edge="1" parent="WIyWlLk6GJQsqaUBKTNV-1" source="0nSK4UFLt7cWW-W3PClM-6" target="0nSK4UFLt7cWW-W3PClM-9">
          <mxGeometry relative="1" as="geometry" />
        </mxCell>
        <mxCell id="0nSK4UFLt7cWW-W3PClM-6" value="Poção 2" style="rhombus;whiteSpace=wrap;html=1;shadow=0;fontFamily=Helvetica;fontSize=12;align=center;strokeWidth=1;spacing=6;spacingTop=-4;" vertex="1" parent="WIyWlLk6GJQsqaUBKTNV-1">
          <mxGeometry x="450" y="190" width="100" height="80" as="geometry" />
        </mxCell>
        <mxCell id="0nSK4UFLt7cWW-W3PClM-24" style="edgeStyle=orthogonalEdgeStyle;rounded=0;orthogonalLoop=1;jettySize=auto;html=1;exitX=0.5;exitY=1;exitDx=0;exitDy=0;entryX=0.5;entryY=0;entryDx=0;entryDy=0;" edge="1" parent="WIyWlLk6GJQsqaUBKTNV-1" source="0nSK4UFLt7cWW-W3PClM-7" target="0nSK4UFLt7cWW-W3PClM-8">
          <mxGeometry relative="1" as="geometry" />
        </mxCell>
        <mxCell id="0nSK4UFLt7cWW-W3PClM-7" value="Poção 1" style="rhombus;whiteSpace=wrap;html=1;shadow=0;fontFamily=Helvetica;fontSize=12;align=center;strokeWidth=1;spacing=6;spacingTop=-4;" vertex="1" parent="WIyWlLk6GJQsqaUBKTNV-1">
          <mxGeometry x="171" y="310" width="100" height="80" as="geometry" />
        </mxCell>
        <mxCell id="0nSK4UFLt7cWW-W3PClM-25" style="edgeStyle=orthogonalEdgeStyle;rounded=0;orthogonalLoop=1;jettySize=auto;html=1;exitX=0.5;exitY=1;exitDx=0;exitDy=0;entryX=0.5;entryY=0;entryDx=0;entryDy=0;" edge="1" parent="WIyWlLk6GJQsqaUBKTNV-1" source="0nSK4UFLt7cWW-W3PClM-8" target="0nSK4UFLt7cWW-W3PClM-14">
          <mxGeometry relative="1" as="geometry" />
        </mxCell>
        <mxCell id="0nSK4UFLt7cWW-W3PClM-8" value="Equipamentos 2" style="rhombus;whiteSpace=wrap;html=1;shadow=0;fontFamily=Helvetica;fontSize=12;align=center;strokeWidth=1;spacing=6;spacingTop=-4;" vertex="1" parent="WIyWlLk6GJQsqaUBKTNV-1">
          <mxGeometry x="170" y="420" width="100" height="80" as="geometry" />
        </mxCell>
        <mxCell id="0nSK4UFLt7cWW-W3PClM-19" style="edgeStyle=orthogonalEdgeStyle;rounded=0;orthogonalLoop=1;jettySize=auto;html=1;exitX=1;exitY=0.5;exitDx=0;exitDy=0;entryX=1;entryY=0.5;entryDx=0;entryDy=0;shape=link;" edge="1" parent="WIyWlLk6GJQsqaUBKTNV-1" source="0nSK4UFLt7cWW-W3PClM-9" target="0nSK4UFLt7cWW-W3PClM-18">
          <mxGeometry relative="1" as="geometry" />
        </mxCell>
        <mxCell id="0nSK4UFLt7cWW-W3PClM-9" value="&lt;div&gt;MOB&lt;/div&gt;&lt;div&gt;(Fechadura)&lt;/div&gt;" style="rhombus;whiteSpace=wrap;html=1;shadow=0;fontFamily=Helvetica;fontSize=12;align=center;strokeWidth=1;spacing=6;spacingTop=-4;" vertex="1" parent="WIyWlLk6GJQsqaUBKTNV-1">
          <mxGeometry x="590" y="190" width="100" height="80" as="geometry" />
        </mxCell>
        <mxCell id="0nSK4UFLt7cWW-W3PClM-13" value="&lt;font style=&quot;font-size: 48px;&quot;&gt;Andar 1&lt;/font&gt;" style="text;html=1;align=center;verticalAlign=middle;resizable=0;points=[];autosize=1;strokeColor=none;fillColor=none;" vertex="1" parent="WIyWlLk6GJQsqaUBKTNV-1">
          <mxGeometry x="300" y="110" width="190" height="70" as="geometry" />
        </mxCell>
        <mxCell id="0nSK4UFLt7cWW-W3PClM-32" value="" style="edgeStyle=orthogonalEdgeStyle;rounded=0;orthogonalLoop=1;jettySize=auto;html=1;" edge="1" parent="WIyWlLk6GJQsqaUBKTNV-1" source="0nSK4UFLt7cWW-W3PClM-14" target="0nSK4UFLt7cWW-W3PClM-15">
          <mxGeometry relative="1" as="geometry" />
        </mxCell>
        <mxCell id="0nSK4UFLt7cWW-W3PClM-33" style="edgeStyle=orthogonalEdgeStyle;rounded=0;orthogonalLoop=1;jettySize=auto;html=1;exitX=0.5;exitY=1;exitDx=0;exitDy=0;entryX=0;entryY=0.5;entryDx=0;entryDy=0;" edge="1" parent="WIyWlLk6GJQsqaUBKTNV-1" source="0nSK4UFLt7cWW-W3PClM-14" target="0nSK4UFLt7cWW-W3PClM-31">
          <mxGeometry relative="1" as="geometry" />
        </mxCell>
        <mxCell id="0nSK4UFLt7cWW-W3PClM-14" value="Sala 1" style="rhombus;whiteSpace=wrap;html=1;shadow=0;fontFamily=Helvetica;fontSize=12;align=center;strokeWidth=1;spacing=6;spacingTop=-4;" vertex="1" parent="WIyWlLk6GJQsqaUBKTNV-1">
          <mxGeometry x="170" y="640" width="100" height="80" as="geometry" />
        </mxCell>
        <mxCell id="0nSK4UFLt7cWW-W3PClM-36" style="edgeStyle=orthogonalEdgeStyle;rounded=0;orthogonalLoop=1;jettySize=auto;html=1;exitX=1;exitY=0.5;exitDx=0;exitDy=0;entryX=0;entryY=0.5;entryDx=0;entryDy=0;" edge="1" parent="WIyWlLk6GJQsqaUBKTNV-1" source="0nSK4UFLt7cWW-W3PClM-15" target="0nSK4UFLt7cWW-W3PClM-17">
          <mxGeometry relative="1" as="geometry" />
        </mxCell>
        <mxCell id="0nSK4UFLt7cWW-W3PClM-15" value="&lt;div&gt;MOB&lt;/div&gt;&lt;div&gt;(Equipamentos)&lt;/div&gt;" style="rhombus;whiteSpace=wrap;html=1;shadow=0;fontFamily=Helvetica;fontSize=12;align=center;strokeWidth=1;spacing=6;spacingTop=-4;" vertex="1" parent="WIyWlLk6GJQsqaUBKTNV-1">
          <mxGeometry x="350" y="640" width="100" height="80" as="geometry" />
        </mxCell>
        <mxCell id="0nSK4UFLt7cWW-W3PClM-37" style="edgeStyle=orthogonalEdgeStyle;rounded=0;orthogonalLoop=1;jettySize=auto;html=1;exitX=1;exitY=0.5;exitDx=0;exitDy=0;entryX=0;entryY=0.5;entryDx=0;entryDy=0;" edge="1" parent="WIyWlLk6GJQsqaUBKTNV-1" source="0nSK4UFLt7cWW-W3PClM-17" target="0nSK4UFLt7cWW-W3PClM-18">
          <mxGeometry relative="1" as="geometry" />
        </mxCell>
        <mxCell id="0nSK4UFLt7cWW-W3PClM-17" value="BIG BAD&lt;div&gt;BOSS&lt;/div&gt;" style="rhombus;whiteSpace=wrap;html=1;shadow=0;fontFamily=Helvetica;fontSize=12;align=center;strokeWidth=1;spacing=6;spacingTop=-4;" vertex="1" parent="WIyWlLk6GJQsqaUBKTNV-1">
          <mxGeometry x="500" y="640" width="100" height="80" as="geometry" />
        </mxCell>
        <mxCell id="0nSK4UFLt7cWW-W3PClM-18" value="Sala Crianças" style="rhombus;whiteSpace=wrap;html=1;shadow=0;fontFamily=Helvetica;fontSize=12;align=center;strokeWidth=1;spacing=6;spacingTop=-4;" vertex="1" parent="WIyWlLk6GJQsqaUBKTNV-1">
          <mxGeometry x="650" y="640" width="100" height="80" as="geometry" />
        </mxCell>
        <mxCell id="0nSK4UFLt7cWW-W3PClM-34" style="edgeStyle=orthogonalEdgeStyle;rounded=0;orthogonalLoop=1;jettySize=auto;html=1;exitX=0.5;exitY=0;exitDx=0;exitDy=0;entryX=0.5;entryY=1;entryDx=0;entryDy=0;" edge="1" parent="WIyWlLk6GJQsqaUBKTNV-1" source="0nSK4UFLt7cWW-W3PClM-31" target="0nSK4UFLt7cWW-W3PClM-15">
          <mxGeometry relative="1" as="geometry" />
        </mxCell>
        <mxCell id="0nSK4UFLt7cWW-W3PClM-35" style="edgeStyle=orthogonalEdgeStyle;rounded=0;orthogonalLoop=1;jettySize=auto;html=1;exitX=1;exitY=0.5;exitDx=0;exitDy=0;entryX=0.5;entryY=1;entryDx=0;entryDy=0;" edge="1" parent="WIyWlLk6GJQsqaUBKTNV-1" source="0nSK4UFLt7cWW-W3PClM-31" target="0nSK4UFLt7cWW-W3PClM-17">
          <mxGeometry relative="1" as="geometry" />
        </mxCell>
        <mxCell id="0nSK4UFLt7cWW-W3PClM-31" value="Equipamentos 3" style="rhombus;whiteSpace=wrap;html=1;shadow=0;fontFamily=Helvetica;fontSize=12;align=center;strokeWidth=1;spacing=6;spacingTop=-4;" vertex="1" parent="WIyWlLk6GJQsqaUBKTNV-1">
          <mxGeometry x="350" y="750" width="100" height="80" as="geometry" />
        </mxCell>
        <mxCell id="0nSK4UFLt7cWW-W3PClM-38" style="edgeStyle=orthogonalEdgeStyle;rounded=0;orthogonalLoop=1;jettySize=auto;html=1;exitX=0;exitY=0.5;exitDx=0;exitDy=0;entryX=0.47;entryY=0.9;entryDx=0;entryDy=0;entryPerimeter=0;" edge="1" parent="WIyWlLk6GJQsqaUBKTNV-1" source="0nSK4UFLt7cWW-W3PClM-8" target="0nSK4UFLt7cWW-W3PClM-4">
          <mxGeometry relative="1" as="geometry" />
        </mxCell>
        <mxCell id="0nSK4UFLt7cWW-W3PClM-41" value="&lt;font style=&quot;font-size: 48px;&quot;&gt;Andar 2&lt;/font&gt;" style="text;html=1;align=center;verticalAlign=middle;resizable=0;points=[];autosize=1;strokeColor=none;fillColor=none;" vertex="1" parent="WIyWlLk6GJQsqaUBKTNV-1">
          <mxGeometry x="290" y="540" width="190" height="70" as="geometry" />
        </mxCell>
        <mxCell id="0nSK4UFLt7cWW-W3PClM-43" value="&lt;div&gt;ESCADAS&lt;/div&gt;&lt;div&gt;SECRETAS&lt;/div&gt;" style="text;html=1;align=center;verticalAlign=middle;resizable=0;points=[];autosize=1;strokeColor=none;fillColor=none;" vertex="1" parent="WIyWlLk6GJQsqaUBKTNV-1">
          <mxGeometry x="770" y="390" width="90" height="40" as="geometry" />
        </mxCell>
      </root>
    </mxGraphModel>
  </diagram>
</mxfile>
